<svg xmlns="http://www.w3.org/2000/svg" xmlns:xlink="http://www.w3.org/1999/xlink" xmlns:fi="http://pattern.flaticon.com/" x="0" y="0" width="700" height="350" viewBox="0 0 1225 612.5"><rect x="0px" y="0px" width="100%" height="100%" opacity="1" fill="#4058ff"/><defs><g transform="matrix(0.11764705926179886 0 0 0.11764705926179886 86 71)" id="L1_0"><path d="m120 368.787v-218.787h-120v338.787z" id="XMLID_16_" fill="#7a7a7a"/><path d="m150 150h210v210h-210z" id="XMLID_15_" fill="#7a7a7a"/><path d="m488.787 0h-338.787v120h218.787z" id="XMLID_14_" fill="#7a7a7a"/><path d="m120 8.787-111.213 111.213h111.213z" id="XMLID_13_" fill="#7a7a7a"/><path d="m390 141.213v218.787h120v-338.787z" id="XMLID_12_" fill="#7a7a7a"/><path d="m390 390v111.213l111.213-111.213z" id="XMLID_11_" fill="#7a7a7a"/><path d="m360 390h-218.787l-120 120h338.787z" id="XMLID_10_" fill="#7a7a7a"/></g><path d="m435.313 74.688c-48.164-48.164-112.2-74.688-180.313-74.688-140.951 0-255 114.069-255 255 0 68.113 26.524 132.149 74.688 180.313 99.666 99.666 260.972 99.652 360.625 0 99.666-99.667 99.652-260.972 0-360.625zm-105.313 135.312h-30v-30h-80.73l37.5 75-37.5 75h80.73v-30h30v60h-159.27l52.5-105-52.5-105h159.27z" transform="matrix(0.11763390898704529 0 0 0.11763390898704529 82 252)" id="L1_2" fill="#737373"/><g transform="matrix(0.11967257410287857 0 0 0.11967257410287857 223.99999588041192 184)" id="L1_6"><path d="m418.976 54.223h-252.272c-9.107 0-16.49 7.383-16.49 16.491s7.383 16.491 16.49 16.491h235.782v381.184h-241.405c-34.296 0-62.198-27.902-62.198-62.199v-311.011c0-34.296 27.902-62.199 62.198-62.199h257.895c9.107 0 16.49-7.383 16.49-16.49s-7.383-16.49-16.49-16.49h-257.895c-52.482 0-95.179 42.697-95.179 95.179v311.01c0 52.482 42.697 95.179 95.179 95.179h257.895c9.107 0 16.49-7.383 16.49-16.49v-414.165c0-9.107-7.383-16.49-16.49-16.49z" fill="#858585"/><path d="m144.957 218.799-7.572 5.108c-9.655 6.515-9.287 20.802.521 26.87v54.042c0 8.836 7.164 16 16 16s16-7.164 16-16v-72.756c-.001-12.792-14.331-20.426-24.949-13.264z" fill="#858585"/><path d="m257.011 289.213-9.214-.098 2.825-1.617c19.397-8.691 27.66-31.661 18.439-50.693-9.304-19.198-32.352-25.479-47.303-18.56l-17.024 7.888c-8.018 3.715-11.506 13.226-7.791 21.244 3.715 8.017 13.225 11.506 21.244 7.791l15.937-7.384c4.165-.871 7.953 3.223 6.347 7.416-1.047 2.742-3.104 3.013-4.965 4.079l-25.063 14.347c-7.848 4.492-12.723 12.9-12.723 21.943 0 13.794 11.222 25.136 25.017 25.283l33.936.359c8.955.076 16.076-7.091 16.168-15.83.094-8.836-6.994-16.075-15.83-16.168z" fill="#858585"/><path d="m358.639 253.502 2.086-2.118c13.394-13.607 3.74-36.695-15.369-36.695h-37.963c-8.837 0-16 7.164-16 16s7.163 16 16 16h13.048c-11.295 11.462-2.725 27.863 10.773 27.863 3.04 0 4.958 1.635 5.831 2.609 4.253 4.749 1.255 12.218-4.75 12.966-4.175.519-6.982-2.006-8.118-4.327-3.889-7.937-13.474-11.216-21.407-7.33-7.937 3.887-11.218 13.472-7.331 21.407 6.745 13.77 20.744 22.313 35.845 22.313 35.214-.001 53.706-43.665 27.355-68.688z" fill="#858585"/></g></defs><g fi:class="KUsePattern"><pattern id="pattern_L1_0" width="350" height="350" patternUnits="userSpaceOnUse"><use xlink:href="#L1_0" x="-350" y="-350"/><use xlink:href="#L1_0" x="0" y="-350"/><use xlink:href="#L1_0" x="350" y="-350"/><use xlink:href="#L1_0" x="-350" y="0"/><use xlink:href="#L1_0" x="0" y="0"/><use xlink:href="#L1_0" x="350" y="0"/><use xlink:href="#L1_0" x="-350" y="350"/><use xlink:href="#L1_0" x="0" y="350"/><use xlink:href="#L1_0" x="350" y="350"/></pattern><rect x="0" y="0" width="100%" height="100%" fill="url(#pattern_L1_0)"/></g><g fi:class="KUsePattern"><pattern id="pattern_L1_2" width="350" height="350" patternUnits="userSpaceOnUse"><use xlink:href="#L1_2" x="-350" y="-350"/><use xlink:href="#L1_2" x="0" y="-350"/><use xlink:href="#L1_2" x="350" y="-350"/><use xlink:href="#L1_2" x="-350" y="0"/><use xlink:href="#L1_2" x="0" y="0"/><use xlink:href="#L1_2" x="350" y="0"/><use xlink:href="#L1_2" x="-350" y="350"/><use xlink:href="#L1_2" x="0" y="350"/><use xlink:href="#L1_2" x="350" y="350"/></pattern><rect x="0" y="0" width="100%" height="100%" fill="url(#pattern_L1_2)"/></g><g fi:class="KUsePattern"><pattern id="pattern_L1_6" width="350" height="350" patternUnits="userSpaceOnUse"><use xlink:href="#L1_6" x="-350" y="-350"/><use xlink:href="#L1_6" x="0" y="-350"/><use xlink:href="#L1_6" x="350" y="-350"/><use xlink:href="#L1_6" x="-350" y="0"/><use xlink:href="#L1_6" x="0" y="0"/><use xlink:href="#L1_6" x="350" y="0"/><use xlink:href="#L1_6" x="-350" y="350"/><use xlink:href="#L1_6" x="0" y="350"/><use xlink:href="#L1_6" x="350" y="350"/></pattern><rect x="0" y="0" width="100%" height="100%" fill="url(#pattern_L1_6)"/></g></svg>